<?xml version="1.0" standalone="no"?>
<!DOCTYPE svg PUBLIC "-//W3C//DTD SVG 20010904//EN"
 "http://www.w3.org/TR/2001/REC-SVG-20010904/DTD/svg10.dtd">
<svg version="1.0" xmlns="http://www.w3.org/2000/svg"
 width="836.000000pt" height="836.000000pt" viewBox="0 0 836.000000 836.000000"
 preserveAspectRatio="xMidYMid meet">
<metadata>
Created by potrace 1.14, written by Peter Selinger 2001-2017
</metadata>
<g transform="translate(0.000000,836.000000) scale(0.100000,-0.100000)"
fill="#000000" stroke="none">
<path d="M2950 5533 c-700 -1385 -1329 -2627 -1397 -2760 l-125 -243 329 0
328 0 554 1098 c305 603 651 1288 769 1521 l215 424 130 -260 130 -260 -560
-1109 c-309 -610 -595 -1178 -637 -1262 l-76 -152 326 2 326 3 355 700 c194
385 617 1222 938 1860 l584 1160 -452 892 c-249 490 -455 894 -458 898 -4 3
-579 -1127 -1279 -2512z m1549 1225 l264 -523 -268 -529 -268 -529 -62 124
c-35 68 -155 306 -268 529 l-206 405 266 527 c146 290 268 526 272 523 3 -2
125 -239 270 -527z"/>
<path d="M5213 5457 l-161 -323 1008 -1995 1009 -1994 -590 -3 c-324 -1 -589
-4 -589 -7 0 -3 64 -133 142 -290 l143 -285 917 0 c505 0 918 3 918 7 0 7
-2620 5194 -2629 5205 -4 4 -79 -138 -168 -315z"/>
<path d="M4687 4409 c-58 -112 -131 -257 -163 -321 l-58 -118 394 -782 c217
-430 494 -981 614 -1225 l219 -443 329 0 c180 0 328 2 328 5 0 3 -315 628
-699 1388 -384 760 -735 1454 -778 1541 l-80 160 -106 -205z"/>
<path d="M3997 2989 c-125 -246 -227 -450 -227 -453 0 -3 205 -6 455 -6 250 0
455 3 455 8 -1 4 -103 208 -228 453 l-227 446 -228 -448z"/>
<path d="M827 1336 c-213 -421 -387 -767 -387 -770 0 -3 1184 -6 2630 -6
l2630 0 -145 290 -145 290 -2015 0 -2015 0 240 473 c132 261 240 477 240 480
0 4 -145 7 -323 7 l-323 0 -387 -764z"/>
<path d="M2246 1814 c-80 -157 -146 -288 -146 -290 0 -2 702 -4 1560 -4 l1560
0 -145 290 -145 290 -1269 0 -1269 0 -146 -286z"/>
</g>
</svg>
